<mxfile host="Electron" modified="2024-05-09T19:04:40.135Z" agent="Mozilla/5.0 (Windows NT 10.0; Win64; x64) AppleWebKit/537.36 (KHTML, like Gecko) draw.io/22.1.18 Chrome/120.0.6099.199 Electron/28.1.2 Safari/537.36" etag="q4Wks9LU1RpzN6B8vtkT" version="22.1.18" type="device">
  <diagram name="Page-1" id="6YFyB_6HSimN8OA7gZ-D">
    <mxGraphModel dx="1242" dy="1082" grid="1" gridSize="10" guides="1" tooltips="1" connect="1" arrows="1" fold="1" page="1" pageScale="1" pageWidth="850" pageHeight="1100" math="0" shadow="0">
      <root>
        <mxCell id="0" />
        <mxCell id="1" parent="0" />
        <mxCell id="Bzx02a5tPrB540sCEJ9Y-5" style="edgeStyle=orthogonalEdgeStyle;rounded=0;orthogonalLoop=1;jettySize=auto;html=1;exitX=1;exitY=0.5;exitDx=0;exitDy=0;entryX=0;entryY=0.5;entryDx=0;entryDy=0;" parent="1" source="Bzx02a5tPrB540sCEJ9Y-1" target="Bzx02a5tPrB540sCEJ9Y-2" edge="1">
          <mxGeometry relative="1" as="geometry" />
        </mxCell>
        <mxCell id="Bzx02a5tPrB540sCEJ9Y-8" style="edgeStyle=orthogonalEdgeStyle;rounded=0;orthogonalLoop=1;jettySize=auto;html=1;exitX=0.5;exitY=1;exitDx=0;exitDy=0;entryX=0.5;entryY=0;entryDx=0;entryDy=0;" parent="1" source="Bzx02a5tPrB540sCEJ9Y-1" target="Bzx02a5tPrB540sCEJ9Y-4" edge="1">
          <mxGeometry relative="1" as="geometry" />
        </mxCell>
        <mxCell id="Bzx02a5tPrB540sCEJ9Y-1" value="&lt;font style=&quot;font-size: 18px;&quot;&gt;&lt;b&gt;A&lt;/b&gt;&lt;/font&gt;" style="ellipse;whiteSpace=wrap;html=1;aspect=fixed;" parent="1" vertex="1">
          <mxGeometry x="525" y="140" width="40" height="40" as="geometry" />
        </mxCell>
        <mxCell id="Bzx02a5tPrB540sCEJ9Y-6" style="edgeStyle=orthogonalEdgeStyle;rounded=0;orthogonalLoop=1;jettySize=auto;html=1;exitX=0.5;exitY=1;exitDx=0;exitDy=0;entryX=0.5;entryY=0;entryDx=0;entryDy=0;" parent="1" source="Bzx02a5tPrB540sCEJ9Y-2" target="Bzx02a5tPrB540sCEJ9Y-3" edge="1">
          <mxGeometry relative="1" as="geometry" />
        </mxCell>
        <mxCell id="Bzx02a5tPrB540sCEJ9Y-2" value="&lt;font style=&quot;font-size: 18px;&quot;&gt;&lt;b&gt;B&lt;/b&gt;&lt;/font&gt;" style="ellipse;whiteSpace=wrap;html=1;aspect=fixed;" parent="1" vertex="1">
          <mxGeometry x="725" y="140" width="40" height="40" as="geometry" />
        </mxCell>
        <mxCell id="Bzx02a5tPrB540sCEJ9Y-7" style="edgeStyle=orthogonalEdgeStyle;rounded=0;orthogonalLoop=1;jettySize=auto;html=1;exitX=1;exitY=0.5;exitDx=0;exitDy=0;entryX=0;entryY=0.5;entryDx=0;entryDy=0;" parent="1" source="Bzx02a5tPrB540sCEJ9Y-4" target="Bzx02a5tPrB540sCEJ9Y-3" edge="1">
          <mxGeometry relative="1" as="geometry" />
        </mxCell>
        <mxCell id="Bzx02a5tPrB540sCEJ9Y-10" style="rounded=0;orthogonalLoop=1;jettySize=auto;html=1;exitX=0;exitY=0;exitDx=0;exitDy=0;entryX=1;entryY=1;entryDx=0;entryDy=0;" parent="1" source="Bzx02a5tPrB540sCEJ9Y-3" target="Bzx02a5tPrB540sCEJ9Y-1" edge="1">
          <mxGeometry relative="1" as="geometry" />
        </mxCell>
        <mxCell id="Bzx02a5tPrB540sCEJ9Y-3" value="&lt;font style=&quot;font-size: 18px;&quot;&gt;&lt;b&gt;C&lt;/b&gt;&lt;/font&gt;" style="ellipse;whiteSpace=wrap;html=1;aspect=fixed;" parent="1" vertex="1">
          <mxGeometry x="725" y="300" width="40" height="40" as="geometry" />
        </mxCell>
        <mxCell id="Bzx02a5tPrB540sCEJ9Y-9" style="rounded=0;orthogonalLoop=1;jettySize=auto;html=1;exitX=1;exitY=0;exitDx=0;exitDy=0;entryX=0;entryY=1;entryDx=0;entryDy=0;" parent="1" source="Bzx02a5tPrB540sCEJ9Y-4" target="Bzx02a5tPrB540sCEJ9Y-2" edge="1">
          <mxGeometry relative="1" as="geometry" />
        </mxCell>
        <mxCell id="Bzx02a5tPrB540sCEJ9Y-4" value="&lt;font style=&quot;font-size: 18px;&quot;&gt;&lt;b&gt;D&lt;/b&gt;&lt;/font&gt;" style="ellipse;whiteSpace=wrap;html=1;aspect=fixed;" parent="1" vertex="1">
          <mxGeometry x="525" y="300" width="40" height="40" as="geometry" />
        </mxCell>
        <mxCell id="Bzx02a5tPrB540sCEJ9Y-11" value="&lt;b&gt;&lt;font style=&quot;font-size: 15px;&quot;&gt;9&lt;/font&gt;&lt;/b&gt;" style="text;html=1;align=center;verticalAlign=middle;resizable=0;points=[];autosize=1;strokeColor=none;fillColor=none;" parent="1" vertex="1">
          <mxGeometry x="630" y="330" width="30" height="30" as="geometry" />
        </mxCell>
        <mxCell id="Bzx02a5tPrB540sCEJ9Y-12" value="&lt;b&gt;&lt;font style=&quot;font-size: 15px;&quot;&gt;4&lt;/font&gt;&lt;/b&gt;" style="text;html=1;align=center;verticalAlign=middle;resizable=0;points=[];autosize=1;strokeColor=none;fillColor=none;" parent="1" vertex="1">
          <mxGeometry x="600" y="180" width="30" height="30" as="geometry" />
        </mxCell>
        <mxCell id="Bzx02a5tPrB540sCEJ9Y-13" value="&lt;b&gt;&lt;font style=&quot;font-size: 15px;&quot;&gt;2&lt;/font&gt;&lt;/b&gt;" style="text;html=1;align=center;verticalAlign=middle;resizable=0;points=[];autosize=1;strokeColor=none;fillColor=none;" parent="1" vertex="1">
          <mxGeometry x="615" y="260" width="30" height="30" as="geometry" />
        </mxCell>
        <mxCell id="Bzx02a5tPrB540sCEJ9Y-14" value="&lt;b&gt;&lt;font style=&quot;font-size: 15px;&quot;&gt;1&lt;/font&gt;&lt;/b&gt;" style="text;html=1;align=center;verticalAlign=middle;resizable=0;points=[];autosize=1;strokeColor=none;fillColor=none;" parent="1" vertex="1">
          <mxGeometry x="515" y="230" width="30" height="30" as="geometry" />
        </mxCell>
        <mxCell id="Bzx02a5tPrB540sCEJ9Y-15" value="&lt;b&gt;&lt;font style=&quot;font-size: 15px;&quot;&gt;8&lt;/font&gt;&lt;/b&gt;" style="text;html=1;align=center;verticalAlign=middle;resizable=0;points=[];autosize=1;strokeColor=none;fillColor=none;" parent="1" vertex="1">
          <mxGeometry x="630" y="130" width="30" height="30" as="geometry" />
        </mxCell>
        <mxCell id="Bzx02a5tPrB540sCEJ9Y-16" value="&lt;b&gt;&lt;font style=&quot;font-size: 15px;&quot;&gt;1&lt;/font&gt;&lt;/b&gt;" style="text;html=1;align=center;verticalAlign=middle;resizable=0;points=[];autosize=1;strokeColor=none;fillColor=none;" parent="1" vertex="1">
          <mxGeometry x="745" y="230" width="30" height="30" as="geometry" />
        </mxCell>
        <mxCell id="Bzx02a5tPrB540sCEJ9Y-17" value="&lt;i&gt;&lt;font style=&quot;font-size: 17px;&quot;&gt;Initial&lt;/font&gt;&lt;/i&gt;" style="text;html=1;strokeColor=none;fillColor=none;align=center;verticalAlign=middle;whiteSpace=wrap;rounded=0;" parent="1" vertex="1">
          <mxGeometry x="525" y="100" width="60" height="30" as="geometry" />
        </mxCell>
        <mxCell id="Bzx02a5tPrB540sCEJ9Y-18" style="edgeStyle=orthogonalEdgeStyle;rounded=0;orthogonalLoop=1;jettySize=auto;html=1;exitX=1;exitY=0.5;exitDx=0;exitDy=0;entryX=0;entryY=0.5;entryDx=0;entryDy=0;fillColor=#f8cecc;strokeColor=#b85450;" parent="1" source="Bzx02a5tPrB540sCEJ9Y-20" target="Bzx02a5tPrB540sCEJ9Y-22" edge="1">
          <mxGeometry relative="1" as="geometry" />
        </mxCell>
        <mxCell id="Bzx02a5tPrB540sCEJ9Y-19" style="edgeStyle=orthogonalEdgeStyle;rounded=0;orthogonalLoop=1;jettySize=auto;html=1;exitX=0.5;exitY=1;exitDx=0;exitDy=0;entryX=0.5;entryY=0;entryDx=0;entryDy=0;" parent="1" source="Bzx02a5tPrB540sCEJ9Y-20" target="Bzx02a5tPrB540sCEJ9Y-27" edge="1">
          <mxGeometry relative="1" as="geometry" />
        </mxCell>
        <mxCell id="Bzx02a5tPrB540sCEJ9Y-20" value="&lt;font style=&quot;font-size: 18px;&quot;&gt;&lt;b&gt;A&lt;/b&gt;&lt;/font&gt;" style="ellipse;whiteSpace=wrap;html=1;aspect=fixed;fillColor=#f8cecc;strokeColor=#b85450;" parent="1" vertex="1">
          <mxGeometry x="80" y="440" width="40" height="40" as="geometry" />
        </mxCell>
        <mxCell id="Bzx02a5tPrB540sCEJ9Y-21" style="edgeStyle=orthogonalEdgeStyle;rounded=0;orthogonalLoop=1;jettySize=auto;html=1;exitX=0.5;exitY=1;exitDx=0;exitDy=0;entryX=0.5;entryY=0;entryDx=0;entryDy=0;" parent="1" source="Bzx02a5tPrB540sCEJ9Y-22" target="Bzx02a5tPrB540sCEJ9Y-25" edge="1">
          <mxGeometry relative="1" as="geometry" />
        </mxCell>
        <mxCell id="Bzx02a5tPrB540sCEJ9Y-22" value="&lt;font style=&quot;font-size: 18px;&quot;&gt;&lt;b&gt;B&lt;/b&gt;&lt;/font&gt;" style="ellipse;whiteSpace=wrap;html=1;aspect=fixed;fillColor=#bac8d3;strokeColor=#23445d;" parent="1" vertex="1">
          <mxGeometry x="280" y="440" width="40" height="40" as="geometry" />
        </mxCell>
        <mxCell id="Bzx02a5tPrB540sCEJ9Y-23" style="edgeStyle=orthogonalEdgeStyle;rounded=0;orthogonalLoop=1;jettySize=auto;html=1;exitX=1;exitY=0.5;exitDx=0;exitDy=0;entryX=0;entryY=0.5;entryDx=0;entryDy=0;" parent="1" source="Bzx02a5tPrB540sCEJ9Y-27" target="Bzx02a5tPrB540sCEJ9Y-25" edge="1">
          <mxGeometry relative="1" as="geometry" />
        </mxCell>
        <mxCell id="Bzx02a5tPrB540sCEJ9Y-24" style="rounded=0;orthogonalLoop=1;jettySize=auto;html=1;exitX=0;exitY=0;exitDx=0;exitDy=0;entryX=1;entryY=1;entryDx=0;entryDy=0;fillColor=#f8cecc;strokeColor=#b85450;" parent="1" source="Bzx02a5tPrB540sCEJ9Y-25" target="Bzx02a5tPrB540sCEJ9Y-20" edge="1">
          <mxGeometry relative="1" as="geometry" />
        </mxCell>
        <mxCell id="Bzx02a5tPrB540sCEJ9Y-25" value="&lt;font style=&quot;font-size: 18px;&quot;&gt;&lt;b&gt;C&lt;/b&gt;&lt;/font&gt;" style="ellipse;whiteSpace=wrap;html=1;aspect=fixed;fillColor=#bac8d3;strokeColor=#23445d;" parent="1" vertex="1">
          <mxGeometry x="280" y="600" width="40" height="40" as="geometry" />
        </mxCell>
        <mxCell id="Bzx02a5tPrB540sCEJ9Y-26" style="rounded=0;orthogonalLoop=1;jettySize=auto;html=1;exitX=1;exitY=0;exitDx=0;exitDy=0;entryX=0;entryY=1;entryDx=0;entryDy=0;" parent="1" source="Bzx02a5tPrB540sCEJ9Y-27" target="Bzx02a5tPrB540sCEJ9Y-22" edge="1">
          <mxGeometry relative="1" as="geometry" />
        </mxCell>
        <mxCell id="Bzx02a5tPrB540sCEJ9Y-27" value="&lt;font style=&quot;font-size: 18px;&quot;&gt;&lt;b&gt;D&lt;/b&gt;&lt;/font&gt;" style="ellipse;whiteSpace=wrap;html=1;aspect=fixed;" parent="1" vertex="1">
          <mxGeometry x="80" y="600" width="40" height="40" as="geometry" />
        </mxCell>
        <mxCell id="Bzx02a5tPrB540sCEJ9Y-28" value="&lt;b&gt;&lt;font style=&quot;font-size: 15px;&quot;&gt;9&lt;/font&gt;&lt;/b&gt;" style="text;html=1;align=center;verticalAlign=middle;resizable=0;points=[];autosize=1;strokeColor=none;fillColor=none;" parent="1" vertex="1">
          <mxGeometry x="185" y="630" width="30" height="30" as="geometry" />
        </mxCell>
        <mxCell id="Bzx02a5tPrB540sCEJ9Y-29" value="&lt;b&gt;&lt;font style=&quot;font-size: 15px;&quot;&gt;4&lt;/font&gt;&lt;/b&gt;" style="text;html=1;align=center;verticalAlign=middle;resizable=0;points=[];autosize=1;strokeColor=none;fillColor=none;" parent="1" vertex="1">
          <mxGeometry x="155" y="480" width="30" height="30" as="geometry" />
        </mxCell>
        <mxCell id="Bzx02a5tPrB540sCEJ9Y-30" value="&lt;b&gt;&lt;font style=&quot;font-size: 15px;&quot;&gt;2&lt;/font&gt;&lt;/b&gt;" style="text;html=1;align=center;verticalAlign=middle;resizable=0;points=[];autosize=1;strokeColor=none;fillColor=none;" parent="1" vertex="1">
          <mxGeometry x="170" y="560" width="30" height="30" as="geometry" />
        </mxCell>
        <mxCell id="Bzx02a5tPrB540sCEJ9Y-31" value="&lt;b&gt;&lt;font style=&quot;font-size: 15px;&quot;&gt;1&lt;/font&gt;&lt;/b&gt;" style="text;html=1;align=center;verticalAlign=middle;resizable=0;points=[];autosize=1;strokeColor=none;fillColor=none;" parent="1" vertex="1">
          <mxGeometry x="70" y="530" width="30" height="30" as="geometry" />
        </mxCell>
        <mxCell id="Bzx02a5tPrB540sCEJ9Y-32" value="&lt;b&gt;&lt;font style=&quot;font-size: 15px;&quot;&gt;8&lt;/font&gt;&lt;/b&gt;" style="text;html=1;align=center;verticalAlign=middle;resizable=0;points=[];autosize=1;strokeColor=none;fillColor=none;" parent="1" vertex="1">
          <mxGeometry x="185" y="430" width="30" height="30" as="geometry" />
        </mxCell>
        <mxCell id="Bzx02a5tPrB540sCEJ9Y-33" value="&lt;b&gt;&lt;font style=&quot;font-size: 15px;&quot;&gt;1&lt;/font&gt;&lt;/b&gt;" style="text;html=1;align=center;verticalAlign=middle;resizable=0;points=[];autosize=1;strokeColor=none;fillColor=none;" parent="1" vertex="1">
          <mxGeometry x="300" y="530" width="30" height="30" as="geometry" />
        </mxCell>
        <mxCell id="Bzx02a5tPrB540sCEJ9Y-34" value="&lt;i&gt;&lt;font style=&quot;font-size: 17px;&quot;&gt;Iteration 1 C -&amp;gt; B via A&lt;/font&gt;&lt;/i&gt;" style="text;html=1;strokeColor=none;fillColor=none;align=left;verticalAlign=middle;whiteSpace=wrap;rounded=0;" parent="1" vertex="1">
          <mxGeometry x="95" y="400" width="175" height="30" as="geometry" />
        </mxCell>
        <mxCell id="Bzx02a5tPrB540sCEJ9Y-35" style="edgeStyle=orthogonalEdgeStyle;rounded=0;orthogonalLoop=1;jettySize=auto;html=1;exitX=1;exitY=0.5;exitDx=0;exitDy=0;entryX=0;entryY=0.5;entryDx=0;entryDy=0;fillColor=#dae8fc;strokeColor=#000000;" parent="1" source="Bzx02a5tPrB540sCEJ9Y-37" target="Bzx02a5tPrB540sCEJ9Y-39" edge="1">
          <mxGeometry relative="1" as="geometry" />
        </mxCell>
        <mxCell id="Bzx02a5tPrB540sCEJ9Y-36" style="edgeStyle=orthogonalEdgeStyle;rounded=0;orthogonalLoop=1;jettySize=auto;html=1;exitX=0.5;exitY=1;exitDx=0;exitDy=0;entryX=0.5;entryY=0;entryDx=0;entryDy=0;fillColor=#f8cecc;strokeColor=#b85450;" parent="1" source="Bzx02a5tPrB540sCEJ9Y-37" target="Bzx02a5tPrB540sCEJ9Y-44" edge="1">
          <mxGeometry relative="1" as="geometry" />
        </mxCell>
        <mxCell id="Bzx02a5tPrB540sCEJ9Y-37" value="&lt;font style=&quot;font-size: 18px;&quot;&gt;&lt;b&gt;A&lt;/b&gt;&lt;/font&gt;" style="ellipse;whiteSpace=wrap;html=1;aspect=fixed;fillColor=#f8cecc;strokeColor=#b85450;" parent="1" vertex="1">
          <mxGeometry x="80" y="720" width="40" height="40" as="geometry" />
        </mxCell>
        <mxCell id="Bzx02a5tPrB540sCEJ9Y-38" style="edgeStyle=orthogonalEdgeStyle;rounded=0;orthogonalLoop=1;jettySize=auto;html=1;exitX=0.5;exitY=1;exitDx=0;exitDy=0;entryX=0.5;entryY=0;entryDx=0;entryDy=0;" parent="1" source="Bzx02a5tPrB540sCEJ9Y-39" target="Bzx02a5tPrB540sCEJ9Y-42" edge="1">
          <mxGeometry relative="1" as="geometry" />
        </mxCell>
        <mxCell id="Bzx02a5tPrB540sCEJ9Y-39" value="&lt;font style=&quot;font-size: 18px;&quot;&gt;&lt;b&gt;B&lt;/b&gt;&lt;/font&gt;" style="ellipse;whiteSpace=wrap;html=1;aspect=fixed;" parent="1" vertex="1">
          <mxGeometry x="280" y="720" width="40" height="40" as="geometry" />
        </mxCell>
        <mxCell id="Bzx02a5tPrB540sCEJ9Y-40" style="edgeStyle=orthogonalEdgeStyle;rounded=0;orthogonalLoop=1;jettySize=auto;html=1;exitX=1;exitY=0.5;exitDx=0;exitDy=0;entryX=0;entryY=0.5;entryDx=0;entryDy=0;" parent="1" source="Bzx02a5tPrB540sCEJ9Y-44" target="Bzx02a5tPrB540sCEJ9Y-42" edge="1">
          <mxGeometry relative="1" as="geometry" />
        </mxCell>
        <mxCell id="Bzx02a5tPrB540sCEJ9Y-41" style="rounded=0;orthogonalLoop=1;jettySize=auto;html=1;exitX=0;exitY=0;exitDx=0;exitDy=0;entryX=1;entryY=1;entryDx=0;entryDy=0;fillColor=#f8cecc;strokeColor=#b85450;" parent="1" source="Bzx02a5tPrB540sCEJ9Y-42" target="Bzx02a5tPrB540sCEJ9Y-37" edge="1">
          <mxGeometry relative="1" as="geometry" />
        </mxCell>
        <mxCell id="Bzx02a5tPrB540sCEJ9Y-42" value="&lt;font style=&quot;font-size: 18px;&quot;&gt;&lt;b&gt;C&lt;/b&gt;&lt;/font&gt;" style="ellipse;whiteSpace=wrap;html=1;aspect=fixed;fillColor=#bac8d3;strokeColor=#23445d;" parent="1" vertex="1">
          <mxGeometry x="280" y="880" width="40" height="40" as="geometry" />
        </mxCell>
        <mxCell id="Bzx02a5tPrB540sCEJ9Y-43" style="rounded=0;orthogonalLoop=1;jettySize=auto;html=1;exitX=1;exitY=0;exitDx=0;exitDy=0;entryX=0;entryY=1;entryDx=0;entryDy=0;" parent="1" source="Bzx02a5tPrB540sCEJ9Y-44" target="Bzx02a5tPrB540sCEJ9Y-39" edge="1">
          <mxGeometry relative="1" as="geometry" />
        </mxCell>
        <mxCell id="Bzx02a5tPrB540sCEJ9Y-44" value="&lt;font style=&quot;font-size: 18px;&quot;&gt;&lt;b&gt;D&lt;/b&gt;&lt;/font&gt;" style="ellipse;whiteSpace=wrap;html=1;aspect=fixed;fillColor=#bac8d3;strokeColor=#23445d;" parent="1" vertex="1">
          <mxGeometry x="80" y="880" width="40" height="40" as="geometry" />
        </mxCell>
        <mxCell id="Bzx02a5tPrB540sCEJ9Y-45" value="&lt;b&gt;&lt;font style=&quot;font-size: 15px;&quot;&gt;9&lt;/font&gt;&lt;/b&gt;" style="text;html=1;align=center;verticalAlign=middle;resizable=0;points=[];autosize=1;strokeColor=none;fillColor=none;" parent="1" vertex="1">
          <mxGeometry x="185" y="910" width="30" height="30" as="geometry" />
        </mxCell>
        <mxCell id="Bzx02a5tPrB540sCEJ9Y-46" value="&lt;b&gt;&lt;font style=&quot;font-size: 15px;&quot;&gt;4&lt;/font&gt;&lt;/b&gt;" style="text;html=1;align=center;verticalAlign=middle;resizable=0;points=[];autosize=1;strokeColor=none;fillColor=none;" parent="1" vertex="1">
          <mxGeometry x="155" y="760" width="30" height="30" as="geometry" />
        </mxCell>
        <mxCell id="Bzx02a5tPrB540sCEJ9Y-47" value="&lt;b&gt;&lt;font style=&quot;font-size: 15px;&quot;&gt;2&lt;/font&gt;&lt;/b&gt;" style="text;html=1;align=center;verticalAlign=middle;resizable=0;points=[];autosize=1;strokeColor=none;fillColor=none;" parent="1" vertex="1">
          <mxGeometry x="170" y="840" width="30" height="30" as="geometry" />
        </mxCell>
        <mxCell id="Bzx02a5tPrB540sCEJ9Y-48" value="&lt;b&gt;&lt;font style=&quot;font-size: 15px;&quot;&gt;1&lt;/font&gt;&lt;/b&gt;" style="text;html=1;align=center;verticalAlign=middle;resizable=0;points=[];autosize=1;strokeColor=none;fillColor=none;" parent="1" vertex="1">
          <mxGeometry x="70" y="810" width="30" height="30" as="geometry" />
        </mxCell>
        <mxCell id="Bzx02a5tPrB540sCEJ9Y-49" value="&lt;b&gt;&lt;font style=&quot;font-size: 15px;&quot;&gt;8&lt;/font&gt;&lt;/b&gt;" style="text;html=1;align=center;verticalAlign=middle;resizable=0;points=[];autosize=1;strokeColor=none;fillColor=none;" parent="1" vertex="1">
          <mxGeometry x="185" y="710" width="30" height="30" as="geometry" />
        </mxCell>
        <mxCell id="Bzx02a5tPrB540sCEJ9Y-50" value="&lt;b&gt;&lt;font style=&quot;font-size: 15px;&quot;&gt;1&lt;/font&gt;&lt;/b&gt;" style="text;html=1;align=center;verticalAlign=middle;resizable=0;points=[];autosize=1;strokeColor=none;fillColor=none;" parent="1" vertex="1">
          <mxGeometry x="300" y="810" width="30" height="30" as="geometry" />
        </mxCell>
        <mxCell id="Bzx02a5tPrB540sCEJ9Y-51" value="&lt;i&gt;&lt;font style=&quot;font-size: 17px;&quot;&gt;Iteration 1 C -&amp;gt; D via A&lt;/font&gt;&lt;/i&gt;" style="text;html=1;strokeColor=none;fillColor=none;align=left;verticalAlign=middle;whiteSpace=wrap;rounded=0;" parent="1" vertex="1">
          <mxGeometry x="95" y="680" width="175" height="30" as="geometry" />
        </mxCell>
        <mxCell id="JX1Twu685BCx0ZPiAXWD-1" style="edgeStyle=orthogonalEdgeStyle;rounded=0;orthogonalLoop=1;jettySize=auto;html=1;exitX=1;exitY=0.5;exitDx=0;exitDy=0;entryX=0;entryY=0.5;entryDx=0;entryDy=0;fillColor=#f8cecc;strokeColor=#b85450;" parent="1" source="JX1Twu685BCx0ZPiAXWD-3" target="JX1Twu685BCx0ZPiAXWD-5" edge="1">
          <mxGeometry relative="1" as="geometry" />
        </mxCell>
        <mxCell id="JX1Twu685BCx0ZPiAXWD-2" style="edgeStyle=orthogonalEdgeStyle;rounded=0;orthogonalLoop=1;jettySize=auto;html=1;exitX=0.5;exitY=1;exitDx=0;exitDy=0;entryX=0.5;entryY=0;entryDx=0;entryDy=0;" parent="1" source="JX1Twu685BCx0ZPiAXWD-3" target="JX1Twu685BCx0ZPiAXWD-10" edge="1">
          <mxGeometry relative="1" as="geometry" />
        </mxCell>
        <mxCell id="JX1Twu685BCx0ZPiAXWD-3" value="&lt;font style=&quot;font-size: 18px;&quot;&gt;&lt;b&gt;A&lt;/b&gt;&lt;/font&gt;" style="ellipse;whiteSpace=wrap;html=1;aspect=fixed;fillColor=#bac8d3;strokeColor=#23445d;" parent="1" vertex="1">
          <mxGeometry x="370" y="440" width="40" height="40" as="geometry" />
        </mxCell>
        <mxCell id="JX1Twu685BCx0ZPiAXWD-4" style="edgeStyle=orthogonalEdgeStyle;rounded=0;orthogonalLoop=1;jettySize=auto;html=1;exitX=0.5;exitY=1;exitDx=0;exitDy=0;entryX=0.5;entryY=0;entryDx=0;entryDy=0;fillColor=#f8cecc;strokeColor=#b85450;" parent="1" source="JX1Twu685BCx0ZPiAXWD-5" target="JX1Twu685BCx0ZPiAXWD-8" edge="1">
          <mxGeometry relative="1" as="geometry" />
        </mxCell>
        <mxCell id="JX1Twu685BCx0ZPiAXWD-5" value="&lt;font style=&quot;font-size: 18px;&quot;&gt;&lt;b&gt;B&lt;/b&gt;&lt;/font&gt;" style="ellipse;whiteSpace=wrap;html=1;aspect=fixed;fillColor=#f8cecc;strokeColor=#b85450;" parent="1" vertex="1">
          <mxGeometry x="570" y="440" width="40" height="40" as="geometry" />
        </mxCell>
        <mxCell id="JX1Twu685BCx0ZPiAXWD-6" style="edgeStyle=orthogonalEdgeStyle;rounded=0;orthogonalLoop=1;jettySize=auto;html=1;exitX=1;exitY=0.5;exitDx=0;exitDy=0;entryX=0;entryY=0.5;entryDx=0;entryDy=0;" parent="1" source="JX1Twu685BCx0ZPiAXWD-10" target="JX1Twu685BCx0ZPiAXWD-8" edge="1">
          <mxGeometry relative="1" as="geometry" />
        </mxCell>
        <mxCell id="JX1Twu685BCx0ZPiAXWD-7" style="rounded=0;orthogonalLoop=1;jettySize=auto;html=1;exitX=0;exitY=0;exitDx=0;exitDy=0;entryX=1;entryY=1;entryDx=0;entryDy=0;fillColor=#f8cecc;strokeColor=#000000;" parent="1" source="JX1Twu685BCx0ZPiAXWD-8" target="JX1Twu685BCx0ZPiAXWD-3" edge="1">
          <mxGeometry relative="1" as="geometry" />
        </mxCell>
        <mxCell id="JX1Twu685BCx0ZPiAXWD-8" value="&lt;font style=&quot;font-size: 18px;&quot;&gt;&lt;b&gt;C&lt;/b&gt;&lt;/font&gt;" style="ellipse;whiteSpace=wrap;html=1;aspect=fixed;fillColor=#bac8d3;strokeColor=#23445d;" parent="1" vertex="1">
          <mxGeometry x="570" y="600" width="40" height="40" as="geometry" />
        </mxCell>
        <mxCell id="JX1Twu685BCx0ZPiAXWD-9" style="rounded=0;orthogonalLoop=1;jettySize=auto;html=1;exitX=1;exitY=0;exitDx=0;exitDy=0;entryX=0;entryY=1;entryDx=0;entryDy=0;" parent="1" source="JX1Twu685BCx0ZPiAXWD-10" target="JX1Twu685BCx0ZPiAXWD-5" edge="1">
          <mxGeometry relative="1" as="geometry" />
        </mxCell>
        <mxCell id="JX1Twu685BCx0ZPiAXWD-10" value="&lt;font style=&quot;font-size: 18px;&quot;&gt;&lt;b&gt;D&lt;/b&gt;&lt;/font&gt;" style="ellipse;whiteSpace=wrap;html=1;aspect=fixed;" parent="1" vertex="1">
          <mxGeometry x="370" y="600" width="40" height="40" as="geometry" />
        </mxCell>
        <mxCell id="JX1Twu685BCx0ZPiAXWD-11" value="&lt;b&gt;&lt;font style=&quot;font-size: 15px;&quot;&gt;9&lt;/font&gt;&lt;/b&gt;" style="text;html=1;align=center;verticalAlign=middle;resizable=0;points=[];autosize=1;strokeColor=none;fillColor=none;" parent="1" vertex="1">
          <mxGeometry x="475" y="630" width="30" height="30" as="geometry" />
        </mxCell>
        <mxCell id="JX1Twu685BCx0ZPiAXWD-12" value="&lt;b&gt;&lt;font style=&quot;font-size: 15px;&quot;&gt;4&lt;/font&gt;&lt;/b&gt;" style="text;html=1;align=center;verticalAlign=middle;resizable=0;points=[];autosize=1;strokeColor=none;fillColor=none;" parent="1" vertex="1">
          <mxGeometry x="445" y="480" width="30" height="30" as="geometry" />
        </mxCell>
        <mxCell id="JX1Twu685BCx0ZPiAXWD-13" value="&lt;b&gt;&lt;font style=&quot;font-size: 15px;&quot;&gt;2&lt;/font&gt;&lt;/b&gt;" style="text;html=1;align=center;verticalAlign=middle;resizable=0;points=[];autosize=1;strokeColor=none;fillColor=none;" parent="1" vertex="1">
          <mxGeometry x="460" y="560" width="30" height="30" as="geometry" />
        </mxCell>
        <mxCell id="JX1Twu685BCx0ZPiAXWD-14" value="&lt;b&gt;&lt;font style=&quot;font-size: 15px;&quot;&gt;8&lt;/font&gt;&lt;/b&gt;" style="text;html=1;align=center;verticalAlign=middle;resizable=0;points=[];autosize=1;strokeColor=none;fillColor=none;" parent="1" vertex="1">
          <mxGeometry x="475" y="430" width="30" height="30" as="geometry" />
        </mxCell>
        <mxCell id="JX1Twu685BCx0ZPiAXWD-15" value="&lt;b&gt;&lt;font style=&quot;font-size: 15px;&quot;&gt;1&lt;/font&gt;&lt;/b&gt;" style="text;html=1;align=center;verticalAlign=middle;resizable=0;points=[];autosize=1;strokeColor=none;fillColor=none;" parent="1" vertex="1">
          <mxGeometry x="590" y="530" width="30" height="30" as="geometry" />
        </mxCell>
        <mxCell id="JX1Twu685BCx0ZPiAXWD-16" value="&lt;i&gt;&lt;font style=&quot;font-size: 17px;&quot;&gt;Iteration 2 A -&amp;gt; C via B&lt;/font&gt;&lt;/i&gt;" style="text;html=1;strokeColor=none;fillColor=none;align=left;verticalAlign=middle;whiteSpace=wrap;rounded=0;" parent="1" vertex="1">
          <mxGeometry x="385" y="400" width="175" height="30" as="geometry" />
        </mxCell>
        <mxCell id="JX1Twu685BCx0ZPiAXWD-17" style="edgeStyle=orthogonalEdgeStyle;rounded=0;orthogonalLoop=1;jettySize=auto;html=1;exitX=1;exitY=0.5;exitDx=0;exitDy=0;entryX=0;entryY=0.5;entryDx=0;entryDy=0;fillColor=#dae8fc;strokeColor=#000000;" parent="1" source="JX1Twu685BCx0ZPiAXWD-19" target="JX1Twu685BCx0ZPiAXWD-21" edge="1">
          <mxGeometry relative="1" as="geometry" />
        </mxCell>
        <mxCell id="JX1Twu685BCx0ZPiAXWD-18" style="edgeStyle=orthogonalEdgeStyle;rounded=0;orthogonalLoop=1;jettySize=auto;html=1;exitX=0.5;exitY=1;exitDx=0;exitDy=0;entryX=0.5;entryY=0;entryDx=0;entryDy=0;fillColor=#f8cecc;strokeColor=#000000;" parent="1" source="JX1Twu685BCx0ZPiAXWD-19" target="JX1Twu685BCx0ZPiAXWD-26" edge="1">
          <mxGeometry relative="1" as="geometry" />
        </mxCell>
        <mxCell id="JX1Twu685BCx0ZPiAXWD-19" value="&lt;font style=&quot;font-size: 18px;&quot;&gt;&lt;b&gt;A&lt;/b&gt;&lt;/font&gt;" style="ellipse;whiteSpace=wrap;html=1;aspect=fixed;" parent="1" vertex="1">
          <mxGeometry x="370" y="720" width="40" height="40" as="geometry" />
        </mxCell>
        <mxCell id="JX1Twu685BCx0ZPiAXWD-20" style="edgeStyle=orthogonalEdgeStyle;rounded=0;orthogonalLoop=1;jettySize=auto;html=1;exitX=0.5;exitY=1;exitDx=0;exitDy=0;entryX=0.5;entryY=0;entryDx=0;entryDy=0;fillColor=#f8cecc;strokeColor=#b85450;" parent="1" source="JX1Twu685BCx0ZPiAXWD-21" target="JX1Twu685BCx0ZPiAXWD-24" edge="1">
          <mxGeometry relative="1" as="geometry" />
        </mxCell>
        <mxCell id="JX1Twu685BCx0ZPiAXWD-21" value="&lt;font style=&quot;font-size: 18px;&quot;&gt;&lt;b&gt;B&lt;/b&gt;&lt;/font&gt;" style="ellipse;whiteSpace=wrap;html=1;aspect=fixed;fillColor=#f8cecc;strokeColor=#b85450;" parent="1" vertex="1">
          <mxGeometry x="570" y="720" width="40" height="40" as="geometry" />
        </mxCell>
        <mxCell id="JX1Twu685BCx0ZPiAXWD-22" style="edgeStyle=orthogonalEdgeStyle;rounded=0;orthogonalLoop=1;jettySize=auto;html=1;exitX=1;exitY=0.5;exitDx=0;exitDy=0;entryX=0;entryY=0.5;entryDx=0;entryDy=0;" parent="1" source="JX1Twu685BCx0ZPiAXWD-26" target="JX1Twu685BCx0ZPiAXWD-24" edge="1">
          <mxGeometry relative="1" as="geometry" />
        </mxCell>
        <mxCell id="JX1Twu685BCx0ZPiAXWD-23" style="rounded=0;orthogonalLoop=1;jettySize=auto;html=1;exitX=0;exitY=0;exitDx=0;exitDy=0;entryX=1;entryY=1;entryDx=0;entryDy=0;fillColor=#f8cecc;strokeColor=#000000;" parent="1" source="JX1Twu685BCx0ZPiAXWD-24" target="JX1Twu685BCx0ZPiAXWD-19" edge="1">
          <mxGeometry relative="1" as="geometry" />
        </mxCell>
        <mxCell id="JX1Twu685BCx0ZPiAXWD-24" value="&lt;font style=&quot;font-size: 18px;&quot;&gt;&lt;b&gt;C&lt;/b&gt;&lt;/font&gt;" style="ellipse;whiteSpace=wrap;html=1;aspect=fixed;fillColor=#bac8d3;strokeColor=#23445d;" parent="1" vertex="1">
          <mxGeometry x="570" y="880" width="40" height="40" as="geometry" />
        </mxCell>
        <mxCell id="JX1Twu685BCx0ZPiAXWD-25" style="rounded=0;orthogonalLoop=1;jettySize=auto;html=1;exitX=1;exitY=0;exitDx=0;exitDy=0;entryX=0;entryY=1;entryDx=0;entryDy=0;fillColor=#f8cecc;strokeColor=#b85450;" parent="1" source="JX1Twu685BCx0ZPiAXWD-26" target="JX1Twu685BCx0ZPiAXWD-21" edge="1">
          <mxGeometry relative="1" as="geometry" />
        </mxCell>
        <mxCell id="JX1Twu685BCx0ZPiAXWD-26" value="&lt;font style=&quot;font-size: 18px;&quot;&gt;&lt;b&gt;D&lt;/b&gt;&lt;/font&gt;" style="ellipse;whiteSpace=wrap;html=1;aspect=fixed;fillColor=#bac8d3;strokeColor=#23445d;" parent="1" vertex="1">
          <mxGeometry x="370" y="880" width="40" height="40" as="geometry" />
        </mxCell>
        <mxCell id="JX1Twu685BCx0ZPiAXWD-27" value="&lt;b&gt;&lt;font style=&quot;font-size: 15px;&quot;&gt;9&lt;/font&gt;&lt;/b&gt;" style="text;html=1;align=center;verticalAlign=middle;resizable=0;points=[];autosize=1;strokeColor=none;fillColor=none;" parent="1" vertex="1">
          <mxGeometry x="475" y="910" width="30" height="30" as="geometry" />
        </mxCell>
        <mxCell id="JX1Twu685BCx0ZPiAXWD-28" value="&lt;b&gt;&lt;font style=&quot;font-size: 15px;&quot;&gt;4&lt;/font&gt;&lt;/b&gt;" style="text;html=1;align=center;verticalAlign=middle;resizable=0;points=[];autosize=1;strokeColor=none;fillColor=none;" parent="1" vertex="1">
          <mxGeometry x="445" y="760" width="30" height="30" as="geometry" />
        </mxCell>
        <mxCell id="JX1Twu685BCx0ZPiAXWD-29" value="&lt;b&gt;&lt;font style=&quot;font-size: 15px;&quot;&gt;2&lt;/font&gt;&lt;/b&gt;" style="text;html=1;align=center;verticalAlign=middle;resizable=0;points=[];autosize=1;strokeColor=none;fillColor=none;" parent="1" vertex="1">
          <mxGeometry x="460" y="840" width="30" height="30" as="geometry" />
        </mxCell>
        <mxCell id="JX1Twu685BCx0ZPiAXWD-30" value="&lt;b&gt;&lt;font style=&quot;font-size: 15px;&quot;&gt;8&lt;/font&gt;&lt;/b&gt;" style="text;html=1;align=center;verticalAlign=middle;resizable=0;points=[];autosize=1;strokeColor=none;fillColor=none;" parent="1" vertex="1">
          <mxGeometry x="475" y="710" width="30" height="30" as="geometry" />
        </mxCell>
        <mxCell id="JX1Twu685BCx0ZPiAXWD-31" value="&lt;b&gt;&lt;font style=&quot;font-size: 15px;&quot;&gt;1&lt;/font&gt;&lt;/b&gt;" style="text;html=1;align=center;verticalAlign=middle;resizable=0;points=[];autosize=1;strokeColor=none;fillColor=none;" parent="1" vertex="1">
          <mxGeometry x="590" y="810" width="30" height="30" as="geometry" />
        </mxCell>
        <mxCell id="JX1Twu685BCx0ZPiAXWD-32" value="&lt;i&gt;&lt;font style=&quot;font-size: 17px;&quot;&gt;Iteration 2 D -&amp;gt; C via B&lt;/font&gt;&lt;/i&gt;" style="text;html=1;strokeColor=none;fillColor=none;align=left;verticalAlign=middle;whiteSpace=wrap;rounded=0;" parent="1" vertex="1">
          <mxGeometry x="385" y="680" width="175" height="30" as="geometry" />
        </mxCell>
        <mxCell id="JX1Twu685BCx0ZPiAXWD-33" style="edgeStyle=orthogonalEdgeStyle;rounded=0;orthogonalLoop=1;jettySize=auto;html=1;exitX=1;exitY=0.5;exitDx=0;exitDy=0;entryX=0;entryY=0.5;entryDx=0;entryDy=0;fillColor=#f8cecc;strokeColor=#000000;" parent="1" source="JX1Twu685BCx0ZPiAXWD-35" target="JX1Twu685BCx0ZPiAXWD-37" edge="1">
          <mxGeometry relative="1" as="geometry" />
        </mxCell>
        <mxCell id="JX1Twu685BCx0ZPiAXWD-34" style="edgeStyle=orthogonalEdgeStyle;rounded=0;orthogonalLoop=1;jettySize=auto;html=1;exitX=0.5;exitY=1;exitDx=0;exitDy=0;entryX=0.5;entryY=0;entryDx=0;entryDy=0;" parent="1" source="JX1Twu685BCx0ZPiAXWD-35" target="JX1Twu685BCx0ZPiAXWD-42" edge="1">
          <mxGeometry relative="1" as="geometry" />
        </mxCell>
        <mxCell id="JX1Twu685BCx0ZPiAXWD-35" value="&lt;font style=&quot;font-size: 18px;&quot;&gt;&lt;b&gt;A&lt;/b&gt;&lt;/font&gt;" style="ellipse;whiteSpace=wrap;html=1;aspect=fixed;fillColor=#bac8d3;strokeColor=#23445d;" parent="1" vertex="1">
          <mxGeometry x="670" y="440" width="40" height="40" as="geometry" />
        </mxCell>
        <mxCell id="JX1Twu685BCx0ZPiAXWD-36" style="edgeStyle=orthogonalEdgeStyle;rounded=0;orthogonalLoop=1;jettySize=auto;html=1;exitX=0.5;exitY=1;exitDx=0;exitDy=0;entryX=0.5;entryY=0;entryDx=0;entryDy=0;fillColor=#fad9d5;strokeColor=#ae4132;" parent="1" source="JX1Twu685BCx0ZPiAXWD-37" target="JX1Twu685BCx0ZPiAXWD-40" edge="1">
          <mxGeometry relative="1" as="geometry" />
        </mxCell>
        <mxCell id="JX1Twu685BCx0ZPiAXWD-37" value="&lt;font style=&quot;font-size: 18px;&quot;&gt;&lt;b&gt;B&lt;/b&gt;&lt;/font&gt;" style="ellipse;whiteSpace=wrap;html=1;aspect=fixed;fillColor=#bac8d3;strokeColor=#23445d;" parent="1" vertex="1">
          <mxGeometry x="870" y="440" width="40" height="40" as="geometry" />
        </mxCell>
        <mxCell id="JX1Twu685BCx0ZPiAXWD-38" style="edgeStyle=orthogonalEdgeStyle;rounded=0;orthogonalLoop=1;jettySize=auto;html=1;exitX=1;exitY=0.5;exitDx=0;exitDy=0;entryX=0;entryY=0.5;entryDx=0;entryDy=0;" parent="1" source="JX1Twu685BCx0ZPiAXWD-42" target="JX1Twu685BCx0ZPiAXWD-40" edge="1">
          <mxGeometry relative="1" as="geometry" />
        </mxCell>
        <mxCell id="JX1Twu685BCx0ZPiAXWD-39" style="rounded=0;orthogonalLoop=1;jettySize=auto;html=1;exitX=0;exitY=0;exitDx=0;exitDy=0;entryX=1;entryY=1;entryDx=0;entryDy=0;fillColor=#fad9d5;strokeColor=#ae4132;" parent="1" source="JX1Twu685BCx0ZPiAXWD-40" target="JX1Twu685BCx0ZPiAXWD-35" edge="1">
          <mxGeometry relative="1" as="geometry" />
        </mxCell>
        <mxCell id="JX1Twu685BCx0ZPiAXWD-40" value="&lt;font style=&quot;font-size: 18px;&quot;&gt;&lt;b&gt;C&lt;/b&gt;&lt;/font&gt;" style="ellipse;whiteSpace=wrap;html=1;aspect=fixed;fillColor=#fad9d5;strokeColor=#ae4132;" parent="1" vertex="1">
          <mxGeometry x="870" y="600" width="40" height="40" as="geometry" />
        </mxCell>
        <mxCell id="JX1Twu685BCx0ZPiAXWD-41" style="rounded=0;orthogonalLoop=1;jettySize=auto;html=1;exitX=1;exitY=0;exitDx=0;exitDy=0;entryX=0;entryY=1;entryDx=0;entryDy=0;" parent="1" source="JX1Twu685BCx0ZPiAXWD-42" target="JX1Twu685BCx0ZPiAXWD-37" edge="1">
          <mxGeometry relative="1" as="geometry" />
        </mxCell>
        <mxCell id="JX1Twu685BCx0ZPiAXWD-42" value="&lt;font style=&quot;font-size: 18px;&quot;&gt;&lt;b&gt;D&lt;/b&gt;&lt;/font&gt;" style="ellipse;whiteSpace=wrap;html=1;aspect=fixed;" parent="1" vertex="1">
          <mxGeometry x="670" y="600" width="40" height="40" as="geometry" />
        </mxCell>
        <mxCell id="JX1Twu685BCx0ZPiAXWD-43" value="&lt;b&gt;&lt;font style=&quot;font-size: 15px;&quot;&gt;9&lt;/font&gt;&lt;/b&gt;" style="text;html=1;align=center;verticalAlign=middle;resizable=0;points=[];autosize=1;strokeColor=none;fillColor=none;" parent="1" vertex="1">
          <mxGeometry x="775" y="630" width="30" height="30" as="geometry" />
        </mxCell>
        <mxCell id="JX1Twu685BCx0ZPiAXWD-44" value="&lt;b&gt;&lt;font style=&quot;font-size: 15px;&quot;&gt;4&lt;/font&gt;&lt;/b&gt;" style="text;html=1;align=center;verticalAlign=middle;resizable=0;points=[];autosize=1;strokeColor=none;fillColor=none;" parent="1" vertex="1">
          <mxGeometry x="745" y="480" width="30" height="30" as="geometry" />
        </mxCell>
        <mxCell id="JX1Twu685BCx0ZPiAXWD-45" value="&lt;b&gt;&lt;font style=&quot;font-size: 15px;&quot;&gt;2&lt;/font&gt;&lt;/b&gt;" style="text;html=1;align=center;verticalAlign=middle;resizable=0;points=[];autosize=1;strokeColor=none;fillColor=none;" parent="1" vertex="1">
          <mxGeometry x="760" y="560" width="30" height="30" as="geometry" />
        </mxCell>
        <mxCell id="JX1Twu685BCx0ZPiAXWD-46" value="&lt;b&gt;&lt;font style=&quot;font-size: 15px;&quot;&gt;8&lt;/font&gt;&lt;/b&gt;" style="text;html=1;align=center;verticalAlign=middle;resizable=0;points=[];autosize=1;strokeColor=none;fillColor=none;" parent="1" vertex="1">
          <mxGeometry x="775" y="430" width="30" height="30" as="geometry" />
        </mxCell>
        <mxCell id="JX1Twu685BCx0ZPiAXWD-47" value="&lt;b&gt;&lt;font style=&quot;font-size: 15px;&quot;&gt;1&lt;/font&gt;&lt;/b&gt;" style="text;html=1;align=center;verticalAlign=middle;resizable=0;points=[];autosize=1;strokeColor=none;fillColor=none;" parent="1" vertex="1">
          <mxGeometry x="890" y="530" width="30" height="30" as="geometry" />
        </mxCell>
        <mxCell id="JX1Twu685BCx0ZPiAXWD-48" value="&lt;i&gt;&lt;font style=&quot;font-size: 17px;&quot;&gt;Iteration 3 B -&amp;gt; A via C&lt;/font&gt;&lt;/i&gt;" style="text;html=1;strokeColor=none;fillColor=none;align=left;verticalAlign=middle;whiteSpace=wrap;rounded=0;" parent="1" vertex="1">
          <mxGeometry x="685" y="400" width="175" height="30" as="geometry" />
        </mxCell>
        <mxCell id="JX1Twu685BCx0ZPiAXWD-49" style="edgeStyle=orthogonalEdgeStyle;rounded=0;orthogonalLoop=1;jettySize=auto;html=1;exitX=1;exitY=0.5;exitDx=0;exitDy=0;entryX=0;entryY=0.5;entryDx=0;entryDy=0;fillColor=#dae8fc;strokeColor=#000000;" parent="1" source="JX1Twu685BCx0ZPiAXWD-51" target="JX1Twu685BCx0ZPiAXWD-53" edge="1">
          <mxGeometry relative="1" as="geometry" />
        </mxCell>
        <mxCell id="JX1Twu685BCx0ZPiAXWD-50" style="edgeStyle=orthogonalEdgeStyle;rounded=0;orthogonalLoop=1;jettySize=auto;html=1;exitX=0.5;exitY=1;exitDx=0;exitDy=0;entryX=0.5;entryY=0;entryDx=0;entryDy=0;fillColor=#fad9d5;strokeColor=#ae4132;" parent="1" source="JX1Twu685BCx0ZPiAXWD-51" target="JX1Twu685BCx0ZPiAXWD-58" edge="1">
          <mxGeometry relative="1" as="geometry" />
        </mxCell>
        <mxCell id="JX1Twu685BCx0ZPiAXWD-51" value="&lt;font style=&quot;font-size: 18px;&quot;&gt;&lt;b&gt;A&lt;/b&gt;&lt;/font&gt;" style="ellipse;whiteSpace=wrap;html=1;aspect=fixed;fillColor=#bac8d3;strokeColor=#23445d;" parent="1" vertex="1">
          <mxGeometry x="670" y="720" width="40" height="40" as="geometry" />
        </mxCell>
        <mxCell id="JX1Twu685BCx0ZPiAXWD-52" style="edgeStyle=orthogonalEdgeStyle;rounded=0;orthogonalLoop=1;jettySize=auto;html=1;exitX=0.5;exitY=1;exitDx=0;exitDy=0;entryX=0.5;entryY=0;entryDx=0;entryDy=0;fillColor=#fad9d5;strokeColor=#ae4132;" parent="1" source="JX1Twu685BCx0ZPiAXWD-53" target="JX1Twu685BCx0ZPiAXWD-56" edge="1">
          <mxGeometry relative="1" as="geometry" />
        </mxCell>
        <mxCell id="JX1Twu685BCx0ZPiAXWD-53" value="&lt;font style=&quot;font-size: 18px;&quot;&gt;&lt;b&gt;B&lt;/b&gt;&lt;/font&gt;" style="ellipse;whiteSpace=wrap;html=1;aspect=fixed;fillColor=#bac8d3;strokeColor=#23445d;" parent="1" vertex="1">
          <mxGeometry x="870" y="720" width="40" height="40" as="geometry" />
        </mxCell>
        <mxCell id="JX1Twu685BCx0ZPiAXWD-54" style="edgeStyle=orthogonalEdgeStyle;rounded=0;orthogonalLoop=1;jettySize=auto;html=1;exitX=1;exitY=0.5;exitDx=0;exitDy=0;entryX=0;entryY=0.5;entryDx=0;entryDy=0;" parent="1" source="JX1Twu685BCx0ZPiAXWD-58" target="JX1Twu685BCx0ZPiAXWD-56" edge="1">
          <mxGeometry relative="1" as="geometry" />
        </mxCell>
        <mxCell id="JX1Twu685BCx0ZPiAXWD-55" style="rounded=0;orthogonalLoop=1;jettySize=auto;html=1;exitX=0;exitY=0;exitDx=0;exitDy=0;entryX=1;entryY=1;entryDx=0;entryDy=0;fillColor=#fad9d5;strokeColor=#ae4132;" parent="1" source="JX1Twu685BCx0ZPiAXWD-56" target="JX1Twu685BCx0ZPiAXWD-51" edge="1">
          <mxGeometry relative="1" as="geometry" />
        </mxCell>
        <mxCell id="JX1Twu685BCx0ZPiAXWD-56" value="&lt;font style=&quot;font-size: 18px;&quot;&gt;&lt;b&gt;C&lt;/b&gt;&lt;/font&gt;" style="ellipse;whiteSpace=wrap;html=1;aspect=fixed;fillColor=#fad9d5;strokeColor=#ae4132;" parent="1" vertex="1">
          <mxGeometry x="870" y="880" width="40" height="40" as="geometry" />
        </mxCell>
        <mxCell id="JX1Twu685BCx0ZPiAXWD-57" style="rounded=0;orthogonalLoop=1;jettySize=auto;html=1;exitX=1;exitY=0;exitDx=0;exitDy=0;entryX=0;entryY=1;entryDx=0;entryDy=0;fillColor=#f8cecc;strokeColor=#000000;" parent="1" source="JX1Twu685BCx0ZPiAXWD-58" target="JX1Twu685BCx0ZPiAXWD-53" edge="1">
          <mxGeometry relative="1" as="geometry" />
        </mxCell>
        <mxCell id="JX1Twu685BCx0ZPiAXWD-58" value="&lt;font style=&quot;font-size: 18px;&quot;&gt;&lt;b&gt;D&lt;/b&gt;&lt;/font&gt;" style="ellipse;whiteSpace=wrap;html=1;aspect=fixed;fillColor=#bac8d3;strokeColor=#23445d;" parent="1" vertex="1">
          <mxGeometry x="670" y="880" width="40" height="40" as="geometry" />
        </mxCell>
        <mxCell id="JX1Twu685BCx0ZPiAXWD-59" value="&lt;b&gt;&lt;font style=&quot;font-size: 15px;&quot;&gt;9&lt;/font&gt;&lt;/b&gt;" style="text;html=1;align=center;verticalAlign=middle;resizable=0;points=[];autosize=1;strokeColor=none;fillColor=none;" parent="1" vertex="1">
          <mxGeometry x="775" y="910" width="30" height="30" as="geometry" />
        </mxCell>
        <mxCell id="JX1Twu685BCx0ZPiAXWD-60" value="&lt;b&gt;&lt;font style=&quot;font-size: 15px;&quot;&gt;4&lt;/font&gt;&lt;/b&gt;" style="text;html=1;align=center;verticalAlign=middle;resizable=0;points=[];autosize=1;strokeColor=none;fillColor=none;" parent="1" vertex="1">
          <mxGeometry x="745" y="760" width="30" height="30" as="geometry" />
        </mxCell>
        <mxCell id="JX1Twu685BCx0ZPiAXWD-61" value="&lt;b&gt;&lt;font style=&quot;font-size: 15px;&quot;&gt;2&lt;/font&gt;&lt;/b&gt;" style="text;html=1;align=center;verticalAlign=middle;resizable=0;points=[];autosize=1;strokeColor=none;fillColor=none;" parent="1" vertex="1">
          <mxGeometry x="760" y="840" width="30" height="30" as="geometry" />
        </mxCell>
        <mxCell id="JX1Twu685BCx0ZPiAXWD-62" value="&lt;b&gt;&lt;font style=&quot;font-size: 15px;&quot;&gt;8&lt;/font&gt;&lt;/b&gt;" style="text;html=1;align=center;verticalAlign=middle;resizable=0;points=[];autosize=1;strokeColor=none;fillColor=none;" parent="1" vertex="1">
          <mxGeometry x="775" y="710" width="30" height="30" as="geometry" />
        </mxCell>
        <mxCell id="JX1Twu685BCx0ZPiAXWD-63" value="&lt;b&gt;&lt;font style=&quot;font-size: 15px;&quot;&gt;1&lt;/font&gt;&lt;/b&gt;" style="text;html=1;align=center;verticalAlign=middle;resizable=0;points=[];autosize=1;strokeColor=none;fillColor=none;" parent="1" vertex="1">
          <mxGeometry x="890" y="810" width="30" height="30" as="geometry" />
        </mxCell>
        <mxCell id="JX1Twu685BCx0ZPiAXWD-64" value="&lt;i&gt;&lt;font style=&quot;font-size: 17px;&quot;&gt;Iteration 3 B -&amp;gt; D via C&lt;/font&gt;&lt;/i&gt;" style="text;html=1;strokeColor=none;fillColor=none;align=left;verticalAlign=middle;whiteSpace=wrap;rounded=0;" parent="1" vertex="1">
          <mxGeometry x="685" y="680" width="185" height="30" as="geometry" />
        </mxCell>
        <mxCell id="JX1Twu685BCx0ZPiAXWD-65" value="&lt;b&gt;&lt;font style=&quot;font-size: 15px;&quot;&gt;1&lt;/font&gt;&lt;/b&gt;" style="text;html=1;align=center;verticalAlign=middle;resizable=0;points=[];autosize=1;strokeColor=none;fillColor=none;" parent="1" vertex="1">
          <mxGeometry x="655" y="810" width="30" height="30" as="geometry" />
        </mxCell>
        <mxCell id="JX1Twu685BCx0ZPiAXWD-66" value="&lt;b&gt;&lt;font style=&quot;font-size: 15px;&quot;&gt;1&lt;/font&gt;&lt;/b&gt;" style="text;html=1;align=center;verticalAlign=middle;resizable=0;points=[];autosize=1;strokeColor=none;fillColor=none;" parent="1" vertex="1">
          <mxGeometry x="660" y="530" width="30" height="30" as="geometry" />
        </mxCell>
        <mxCell id="JX1Twu685BCx0ZPiAXWD-67" style="edgeStyle=orthogonalEdgeStyle;rounded=0;orthogonalLoop=1;jettySize=auto;html=1;exitX=1;exitY=0.5;exitDx=0;exitDy=0;entryX=0;entryY=0.5;entryDx=0;entryDy=0;fillColor=#dae8fc;strokeColor=#000000;" parent="1" source="JX1Twu685BCx0ZPiAXWD-69" target="JX1Twu685BCx0ZPiAXWD-71" edge="1">
          <mxGeometry relative="1" as="geometry" />
        </mxCell>
        <mxCell id="JX1Twu685BCx0ZPiAXWD-68" style="edgeStyle=orthogonalEdgeStyle;rounded=0;orthogonalLoop=1;jettySize=auto;html=1;exitX=0.5;exitY=1;exitDx=0;exitDy=0;entryX=0.5;entryY=0;entryDx=0;entryDy=0;fillColor=#fad9d5;strokeColor=#000000;" parent="1" source="JX1Twu685BCx0ZPiAXWD-69" target="JX1Twu685BCx0ZPiAXWD-76" edge="1">
          <mxGeometry relative="1" as="geometry" />
        </mxCell>
        <mxCell id="JX1Twu685BCx0ZPiAXWD-69" value="&lt;font style=&quot;font-size: 18px;&quot;&gt;&lt;b&gt;A&lt;/b&gt;&lt;/font&gt;" style="ellipse;whiteSpace=wrap;html=1;aspect=fixed;fillColor=#bac8d3;strokeColor=#23445d;" parent="1" vertex="1">
          <mxGeometry x="670" y="1000" width="40" height="40" as="geometry" />
        </mxCell>
        <mxCell id="JX1Twu685BCx0ZPiAXWD-70" style="edgeStyle=orthogonalEdgeStyle;rounded=0;orthogonalLoop=1;jettySize=auto;html=1;exitX=0.5;exitY=1;exitDx=0;exitDy=0;entryX=0.5;entryY=0;entryDx=0;entryDy=0;fillColor=#fad9d5;strokeColor=#ae4132;" parent="1" source="JX1Twu685BCx0ZPiAXWD-71" target="JX1Twu685BCx0ZPiAXWD-74" edge="1">
          <mxGeometry relative="1" as="geometry" />
        </mxCell>
        <mxCell id="JX1Twu685BCx0ZPiAXWD-71" value="&lt;font style=&quot;font-size: 18px;&quot;&gt;&lt;b&gt;B&lt;/b&gt;&lt;/font&gt;" style="ellipse;whiteSpace=wrap;html=1;aspect=fixed;fillColor=#bac8d3;strokeColor=#23445d;" parent="1" vertex="1">
          <mxGeometry x="870" y="1000" width="40" height="40" as="geometry" />
        </mxCell>
        <mxCell id="JX1Twu685BCx0ZPiAXWD-72" style="edgeStyle=orthogonalEdgeStyle;rounded=0;orthogonalLoop=1;jettySize=auto;html=1;exitX=1;exitY=0.5;exitDx=0;exitDy=0;entryX=0;entryY=0.5;entryDx=0;entryDy=0;fillColor=#fad9d5;strokeColor=#000000;" parent="1" source="JX1Twu685BCx0ZPiAXWD-76" target="JX1Twu685BCx0ZPiAXWD-74" edge="1">
          <mxGeometry relative="1" as="geometry" />
        </mxCell>
        <mxCell id="JX1Twu685BCx0ZPiAXWD-73" style="rounded=0;orthogonalLoop=1;jettySize=auto;html=1;exitX=0;exitY=0;exitDx=0;exitDy=0;entryX=1;entryY=1;entryDx=0;entryDy=0;fillColor=#fad9d5;strokeColor=#ae4132;" parent="1" source="JX1Twu685BCx0ZPiAXWD-74" target="JX1Twu685BCx0ZPiAXWD-69" edge="1">
          <mxGeometry relative="1" as="geometry" />
        </mxCell>
        <mxCell id="JX1Twu685BCx0ZPiAXWD-74" value="&lt;font style=&quot;font-size: 18px;&quot;&gt;&lt;b&gt;C&lt;/b&gt;&lt;/font&gt;" style="ellipse;whiteSpace=wrap;html=1;aspect=fixed;fillColor=#fad9d5;strokeColor=#ae4132;" parent="1" vertex="1">
          <mxGeometry x="870" y="1160" width="40" height="40" as="geometry" />
        </mxCell>
        <mxCell id="JX1Twu685BCx0ZPiAXWD-75" style="rounded=0;orthogonalLoop=1;jettySize=auto;html=1;exitX=1;exitY=0;exitDx=0;exitDy=0;entryX=0;entryY=1;entryDx=0;entryDy=0;fillColor=#fad9d5;strokeColor=#ae4132;" parent="1" source="JX1Twu685BCx0ZPiAXWD-76" target="JX1Twu685BCx0ZPiAXWD-71" edge="1">
          <mxGeometry relative="1" as="geometry" />
        </mxCell>
        <mxCell id="JX1Twu685BCx0ZPiAXWD-76" value="&lt;font style=&quot;font-size: 18px;&quot;&gt;&lt;b&gt;D&lt;/b&gt;&lt;/font&gt;" style="ellipse;whiteSpace=wrap;html=1;aspect=fixed;fillColor=#bac8d3;strokeColor=#23445d;" parent="1" vertex="1">
          <mxGeometry x="670" y="1160" width="40" height="40" as="geometry" />
        </mxCell>
        <mxCell id="JX1Twu685BCx0ZPiAXWD-77" value="&lt;b&gt;&lt;font style=&quot;font-size: 15px;&quot;&gt;9&lt;/font&gt;&lt;/b&gt;" style="text;html=1;align=center;verticalAlign=middle;resizable=0;points=[];autosize=1;strokeColor=none;fillColor=none;" parent="1" vertex="1">
          <mxGeometry x="775" y="1190" width="30" height="30" as="geometry" />
        </mxCell>
        <mxCell id="JX1Twu685BCx0ZPiAXWD-78" value="&lt;b&gt;&lt;font style=&quot;font-size: 15px;&quot;&gt;4&lt;/font&gt;&lt;/b&gt;" style="text;html=1;align=center;verticalAlign=middle;resizable=0;points=[];autosize=1;strokeColor=none;fillColor=none;" parent="1" vertex="1">
          <mxGeometry x="745" y="1040" width="30" height="30" as="geometry" />
        </mxCell>
        <mxCell id="JX1Twu685BCx0ZPiAXWD-79" value="&lt;b&gt;&lt;font style=&quot;font-size: 15px;&quot;&gt;2&lt;/font&gt;&lt;/b&gt;" style="text;html=1;align=center;verticalAlign=middle;resizable=0;points=[];autosize=1;strokeColor=none;fillColor=none;" parent="1" vertex="1">
          <mxGeometry x="760" y="1120" width="30" height="30" as="geometry" />
        </mxCell>
        <mxCell id="JX1Twu685BCx0ZPiAXWD-80" value="&lt;b&gt;&lt;font style=&quot;font-size: 15px;&quot;&gt;8&lt;/font&gt;&lt;/b&gt;" style="text;html=1;align=center;verticalAlign=middle;resizable=0;points=[];autosize=1;strokeColor=none;fillColor=none;" parent="1" vertex="1">
          <mxGeometry x="775" y="990" width="30" height="30" as="geometry" />
        </mxCell>
        <mxCell id="JX1Twu685BCx0ZPiAXWD-81" value="&lt;b&gt;&lt;font style=&quot;font-size: 15px;&quot;&gt;1&lt;/font&gt;&lt;/b&gt;" style="text;html=1;align=center;verticalAlign=middle;resizable=0;points=[];autosize=1;strokeColor=none;fillColor=none;" parent="1" vertex="1">
          <mxGeometry x="890" y="1090" width="30" height="30" as="geometry" />
        </mxCell>
        <mxCell id="JX1Twu685BCx0ZPiAXWD-82" value="&lt;i&gt;&lt;font style=&quot;font-size: 17px;&quot;&gt;Iteration 3 D -&amp;gt; A via C&lt;/font&gt;&lt;/i&gt;" style="text;html=1;strokeColor=none;fillColor=none;align=left;verticalAlign=middle;whiteSpace=wrap;rounded=0;" parent="1" vertex="1">
          <mxGeometry x="685" y="960" width="185" height="30" as="geometry" />
        </mxCell>
        <mxCell id="JX1Twu685BCx0ZPiAXWD-83" value="&lt;b&gt;&lt;font style=&quot;font-size: 15px;&quot;&gt;1&lt;/font&gt;&lt;/b&gt;" style="text;html=1;align=center;verticalAlign=middle;resizable=0;points=[];autosize=1;strokeColor=none;fillColor=none;" parent="1" vertex="1">
          <mxGeometry x="660" y="1090" width="30" height="30" as="geometry" />
        </mxCell>
        <mxCell id="wnDjUDv28tiu1xgnlLdt-1" style="edgeStyle=orthogonalEdgeStyle;rounded=0;orthogonalLoop=1;jettySize=auto;html=1;exitX=1;exitY=0.5;exitDx=0;exitDy=0;entryX=0;entryY=0.5;entryDx=0;entryDy=0;fillColor=#f8cecc;strokeColor=#000000;" edge="1" parent="1" source="wnDjUDv28tiu1xgnlLdt-3" target="wnDjUDv28tiu1xgnlLdt-5">
          <mxGeometry relative="1" as="geometry" />
        </mxCell>
        <mxCell id="wnDjUDv28tiu1xgnlLdt-2" style="edgeStyle=orthogonalEdgeStyle;rounded=0;orthogonalLoop=1;jettySize=auto;html=1;exitX=0.5;exitY=1;exitDx=0;exitDy=0;entryX=0.5;entryY=0;entryDx=0;entryDy=0;fillColor=#f8cecc;strokeColor=#b85450;" edge="1" parent="1" source="wnDjUDv28tiu1xgnlLdt-3" target="wnDjUDv28tiu1xgnlLdt-10">
          <mxGeometry relative="1" as="geometry" />
        </mxCell>
        <mxCell id="wnDjUDv28tiu1xgnlLdt-3" value="&lt;font style=&quot;font-size: 18px;&quot;&gt;&lt;b&gt;A&lt;/b&gt;&lt;/font&gt;" style="ellipse;whiteSpace=wrap;html=1;aspect=fixed;fillColor=#bac8d3;strokeColor=#23445d;" vertex="1" parent="1">
          <mxGeometry x="995" y="440" width="40" height="40" as="geometry" />
        </mxCell>
        <mxCell id="wnDjUDv28tiu1xgnlLdt-4" style="edgeStyle=orthogonalEdgeStyle;rounded=0;orthogonalLoop=1;jettySize=auto;html=1;exitX=0.5;exitY=1;exitDx=0;exitDy=0;entryX=0.5;entryY=0;entryDx=0;entryDy=0;fillColor=#fad9d5;strokeColor=#000000;" edge="1" parent="1" source="wnDjUDv28tiu1xgnlLdt-5" target="wnDjUDv28tiu1xgnlLdt-8">
          <mxGeometry relative="1" as="geometry" />
        </mxCell>
        <mxCell id="wnDjUDv28tiu1xgnlLdt-5" value="&lt;font style=&quot;font-size: 18px;&quot;&gt;&lt;b&gt;B&lt;/b&gt;&lt;/font&gt;" style="ellipse;whiteSpace=wrap;html=1;aspect=fixed;fillColor=#bac8d3;strokeColor=#23445d;" vertex="1" parent="1">
          <mxGeometry x="1195" y="440" width="40" height="40" as="geometry" />
        </mxCell>
        <mxCell id="wnDjUDv28tiu1xgnlLdt-6" style="edgeStyle=orthogonalEdgeStyle;rounded=0;orthogonalLoop=1;jettySize=auto;html=1;exitX=1;exitY=0.5;exitDx=0;exitDy=0;entryX=0;entryY=0.5;entryDx=0;entryDy=0;" edge="1" parent="1" source="wnDjUDv28tiu1xgnlLdt-10" target="wnDjUDv28tiu1xgnlLdt-8">
          <mxGeometry relative="1" as="geometry" />
        </mxCell>
        <mxCell id="wnDjUDv28tiu1xgnlLdt-7" style="rounded=0;orthogonalLoop=1;jettySize=auto;html=1;exitX=0;exitY=0;exitDx=0;exitDy=0;entryX=1;entryY=1;entryDx=0;entryDy=0;fillColor=#fad9d5;strokeColor=#000000;" edge="1" parent="1" source="wnDjUDv28tiu1xgnlLdt-8" target="wnDjUDv28tiu1xgnlLdt-3">
          <mxGeometry relative="1" as="geometry" />
        </mxCell>
        <mxCell id="wnDjUDv28tiu1xgnlLdt-8" value="&lt;font style=&quot;font-size: 18px;&quot;&gt;&lt;b&gt;C&lt;/b&gt;&lt;/font&gt;" style="ellipse;whiteSpace=wrap;html=1;aspect=fixed;" vertex="1" parent="1">
          <mxGeometry x="1195" y="600" width="40" height="40" as="geometry" />
        </mxCell>
        <mxCell id="wnDjUDv28tiu1xgnlLdt-9" style="rounded=0;orthogonalLoop=1;jettySize=auto;html=1;exitX=1;exitY=0;exitDx=0;exitDy=0;entryX=0;entryY=1;entryDx=0;entryDy=0;fillColor=#f8cecc;strokeColor=#b85450;" edge="1" parent="1" source="wnDjUDv28tiu1xgnlLdt-10" target="wnDjUDv28tiu1xgnlLdt-5">
          <mxGeometry relative="1" as="geometry" />
        </mxCell>
        <mxCell id="wnDjUDv28tiu1xgnlLdt-10" value="&lt;font style=&quot;font-size: 18px;&quot;&gt;&lt;b&gt;D&lt;/b&gt;&lt;/font&gt;" style="ellipse;whiteSpace=wrap;html=1;aspect=fixed;fillColor=#f8cecc;strokeColor=#b85450;" vertex="1" parent="1">
          <mxGeometry x="995" y="600" width="40" height="40" as="geometry" />
        </mxCell>
        <mxCell id="wnDjUDv28tiu1xgnlLdt-11" value="&lt;b&gt;&lt;font style=&quot;font-size: 15px;&quot;&gt;9&lt;/font&gt;&lt;/b&gt;" style="text;html=1;align=center;verticalAlign=middle;resizable=0;points=[];autosize=1;strokeColor=none;fillColor=none;" vertex="1" parent="1">
          <mxGeometry x="1100" y="630" width="30" height="30" as="geometry" />
        </mxCell>
        <mxCell id="wnDjUDv28tiu1xgnlLdt-12" value="&lt;b&gt;&lt;font style=&quot;font-size: 15px;&quot;&gt;4&lt;/font&gt;&lt;/b&gt;" style="text;html=1;align=center;verticalAlign=middle;resizable=0;points=[];autosize=1;strokeColor=none;fillColor=none;" vertex="1" parent="1">
          <mxGeometry x="1070" y="480" width="30" height="30" as="geometry" />
        </mxCell>
        <mxCell id="wnDjUDv28tiu1xgnlLdt-13" value="&lt;b&gt;&lt;font style=&quot;font-size: 15px;&quot;&gt;2&lt;/font&gt;&lt;/b&gt;" style="text;html=1;align=center;verticalAlign=middle;resizable=0;points=[];autosize=1;strokeColor=none;fillColor=none;" vertex="1" parent="1">
          <mxGeometry x="1085" y="560" width="30" height="30" as="geometry" />
        </mxCell>
        <mxCell id="wnDjUDv28tiu1xgnlLdt-14" value="&lt;b&gt;&lt;font style=&quot;font-size: 15px;&quot;&gt;8&lt;/font&gt;&lt;/b&gt;" style="text;html=1;align=center;verticalAlign=middle;resizable=0;points=[];autosize=1;strokeColor=none;fillColor=none;" vertex="1" parent="1">
          <mxGeometry x="1100" y="430" width="30" height="30" as="geometry" />
        </mxCell>
        <mxCell id="wnDjUDv28tiu1xgnlLdt-15" value="&lt;b&gt;&lt;font style=&quot;font-size: 15px;&quot;&gt;1&lt;/font&gt;&lt;/b&gt;" style="text;html=1;align=center;verticalAlign=middle;resizable=0;points=[];autosize=1;strokeColor=none;fillColor=none;" vertex="1" parent="1">
          <mxGeometry x="1215" y="530" width="30" height="30" as="geometry" />
        </mxCell>
        <mxCell id="wnDjUDv28tiu1xgnlLdt-16" value="&lt;i&gt;&lt;font style=&quot;font-size: 17px;&quot;&gt;Iteration 4 A -&amp;gt; B via D&lt;/font&gt;&lt;/i&gt;" style="text;html=1;strokeColor=none;fillColor=none;align=left;verticalAlign=middle;whiteSpace=wrap;rounded=0;" vertex="1" parent="1">
          <mxGeometry x="1010" y="400" width="175" height="30" as="geometry" />
        </mxCell>
        <mxCell id="wnDjUDv28tiu1xgnlLdt-17" style="edgeStyle=orthogonalEdgeStyle;rounded=0;orthogonalLoop=1;jettySize=auto;html=1;exitX=1;exitY=0.5;exitDx=0;exitDy=0;entryX=0;entryY=0.5;entryDx=0;entryDy=0;fillColor=#dae8fc;strokeColor=#000000;" edge="1" parent="1" source="wnDjUDv28tiu1xgnlLdt-19" target="wnDjUDv28tiu1xgnlLdt-21">
          <mxGeometry relative="1" as="geometry" />
        </mxCell>
        <mxCell id="wnDjUDv28tiu1xgnlLdt-18" style="edgeStyle=orthogonalEdgeStyle;rounded=0;orthogonalLoop=1;jettySize=auto;html=1;exitX=0.5;exitY=1;exitDx=0;exitDy=0;entryX=0.5;entryY=0;entryDx=0;entryDy=0;fillColor=#f8cecc;strokeColor=#b85450;" edge="1" parent="1" source="wnDjUDv28tiu1xgnlLdt-19" target="wnDjUDv28tiu1xgnlLdt-26">
          <mxGeometry relative="1" as="geometry" />
        </mxCell>
        <mxCell id="wnDjUDv28tiu1xgnlLdt-19" value="&lt;font style=&quot;font-size: 18px;&quot;&gt;&lt;b&gt;A&lt;/b&gt;&lt;/font&gt;" style="ellipse;whiteSpace=wrap;html=1;aspect=fixed;fillColor=#bac8d3;strokeColor=#23445d;" vertex="1" parent="1">
          <mxGeometry x="995" y="720" width="40" height="40" as="geometry" />
        </mxCell>
        <mxCell id="wnDjUDv28tiu1xgnlLdt-20" style="edgeStyle=orthogonalEdgeStyle;rounded=0;orthogonalLoop=1;jettySize=auto;html=1;exitX=0.5;exitY=1;exitDx=0;exitDy=0;entryX=0.5;entryY=0;entryDx=0;entryDy=0;fillColor=#f8cecc;strokeColor=#b85450;" edge="1" parent="1" source="wnDjUDv28tiu1xgnlLdt-21" target="wnDjUDv28tiu1xgnlLdt-24">
          <mxGeometry relative="1" as="geometry" />
        </mxCell>
        <mxCell id="wnDjUDv28tiu1xgnlLdt-21" value="&lt;font style=&quot;font-size: 18px;&quot;&gt;&lt;b&gt;B&lt;/b&gt;&lt;/font&gt;" style="ellipse;whiteSpace=wrap;html=1;aspect=fixed;fillColor=#bac8d3;strokeColor=#23445d;" vertex="1" parent="1">
          <mxGeometry x="1195" y="720" width="40" height="40" as="geometry" />
        </mxCell>
        <mxCell id="wnDjUDv28tiu1xgnlLdt-22" style="edgeStyle=orthogonalEdgeStyle;rounded=0;orthogonalLoop=1;jettySize=auto;html=1;exitX=1;exitY=0.5;exitDx=0;exitDy=0;entryX=0;entryY=0.5;entryDx=0;entryDy=0;" edge="1" parent="1" source="wnDjUDv28tiu1xgnlLdt-26" target="wnDjUDv28tiu1xgnlLdt-24">
          <mxGeometry relative="1" as="geometry" />
        </mxCell>
        <mxCell id="wnDjUDv28tiu1xgnlLdt-23" style="rounded=0;orthogonalLoop=1;jettySize=auto;html=1;exitX=0;exitY=0;exitDx=0;exitDy=0;entryX=1;entryY=1;entryDx=0;entryDy=0;fillColor=#fad9d5;strokeColor=#000000;" edge="1" parent="1" source="wnDjUDv28tiu1xgnlLdt-24" target="wnDjUDv28tiu1xgnlLdt-19">
          <mxGeometry relative="1" as="geometry" />
        </mxCell>
        <mxCell id="wnDjUDv28tiu1xgnlLdt-24" value="&lt;font style=&quot;font-size: 18px;&quot;&gt;&lt;b&gt;C&lt;/b&gt;&lt;/font&gt;" style="ellipse;whiteSpace=wrap;html=1;aspect=fixed;fillColor=#bac8d3;strokeColor=#23445d;" vertex="1" parent="1">
          <mxGeometry x="1195" y="880" width="40" height="40" as="geometry" />
        </mxCell>
        <mxCell id="wnDjUDv28tiu1xgnlLdt-25" style="rounded=0;orthogonalLoop=1;jettySize=auto;html=1;exitX=1;exitY=0;exitDx=0;exitDy=0;entryX=0;entryY=1;entryDx=0;entryDy=0;fillColor=#f8cecc;strokeColor=#b85450;" edge="1" parent="1" source="wnDjUDv28tiu1xgnlLdt-26" target="wnDjUDv28tiu1xgnlLdt-21">
          <mxGeometry relative="1" as="geometry" />
        </mxCell>
        <mxCell id="wnDjUDv28tiu1xgnlLdt-26" value="&lt;font style=&quot;font-size: 18px;&quot;&gt;&lt;b&gt;D&lt;/b&gt;&lt;/font&gt;" style="ellipse;whiteSpace=wrap;html=1;aspect=fixed;fillColor=#f8cecc;strokeColor=#b85450;" vertex="1" parent="1">
          <mxGeometry x="995" y="880" width="40" height="40" as="geometry" />
        </mxCell>
        <mxCell id="wnDjUDv28tiu1xgnlLdt-27" value="&lt;b&gt;&lt;font style=&quot;font-size: 15px;&quot;&gt;9&lt;/font&gt;&lt;/b&gt;" style="text;html=1;align=center;verticalAlign=middle;resizable=0;points=[];autosize=1;strokeColor=none;fillColor=none;" vertex="1" parent="1">
          <mxGeometry x="1100" y="910" width="30" height="30" as="geometry" />
        </mxCell>
        <mxCell id="wnDjUDv28tiu1xgnlLdt-28" value="&lt;b&gt;&lt;font style=&quot;font-size: 15px;&quot;&gt;4&lt;/font&gt;&lt;/b&gt;" style="text;html=1;align=center;verticalAlign=middle;resizable=0;points=[];autosize=1;strokeColor=none;fillColor=none;" vertex="1" parent="1">
          <mxGeometry x="1070" y="760" width="30" height="30" as="geometry" />
        </mxCell>
        <mxCell id="wnDjUDv28tiu1xgnlLdt-29" value="&lt;b&gt;&lt;font style=&quot;font-size: 15px;&quot;&gt;2&lt;/font&gt;&lt;/b&gt;" style="text;html=1;align=center;verticalAlign=middle;resizable=0;points=[];autosize=1;strokeColor=none;fillColor=none;" vertex="1" parent="1">
          <mxGeometry x="1085" y="840" width="30" height="30" as="geometry" />
        </mxCell>
        <mxCell id="wnDjUDv28tiu1xgnlLdt-30" value="&lt;b&gt;&lt;font style=&quot;font-size: 15px;&quot;&gt;8&lt;/font&gt;&lt;/b&gt;" style="text;html=1;align=center;verticalAlign=middle;resizable=0;points=[];autosize=1;strokeColor=none;fillColor=none;" vertex="1" parent="1">
          <mxGeometry x="1100" y="710" width="30" height="30" as="geometry" />
        </mxCell>
        <mxCell id="wnDjUDv28tiu1xgnlLdt-31" value="&lt;b&gt;&lt;font style=&quot;font-size: 15px;&quot;&gt;1&lt;/font&gt;&lt;/b&gt;" style="text;html=1;align=center;verticalAlign=middle;resizable=0;points=[];autosize=1;strokeColor=none;fillColor=none;" vertex="1" parent="1">
          <mxGeometry x="1215" y="810" width="30" height="30" as="geometry" />
        </mxCell>
        <mxCell id="wnDjUDv28tiu1xgnlLdt-32" value="&lt;i&gt;&lt;font style=&quot;font-size: 17px;&quot;&gt;Iteration 4 A -&amp;gt; C via D&lt;/font&gt;&lt;/i&gt;" style="text;html=1;strokeColor=none;fillColor=none;align=left;verticalAlign=middle;whiteSpace=wrap;rounded=0;" vertex="1" parent="1">
          <mxGeometry x="1010" y="680" width="185" height="30" as="geometry" />
        </mxCell>
        <mxCell id="wnDjUDv28tiu1xgnlLdt-33" value="&lt;b&gt;&lt;font style=&quot;font-size: 15px;&quot;&gt;1&lt;/font&gt;&lt;/b&gt;" style="text;html=1;align=center;verticalAlign=middle;resizable=0;points=[];autosize=1;strokeColor=none;fillColor=none;" vertex="1" parent="1">
          <mxGeometry x="980" y="810" width="30" height="30" as="geometry" />
        </mxCell>
        <mxCell id="wnDjUDv28tiu1xgnlLdt-34" value="&lt;b&gt;&lt;font style=&quot;font-size: 15px;&quot;&gt;1&lt;/font&gt;&lt;/b&gt;" style="text;html=1;align=center;verticalAlign=middle;resizable=0;points=[];autosize=1;strokeColor=none;fillColor=none;" vertex="1" parent="1">
          <mxGeometry x="985" y="530" width="30" height="30" as="geometry" />
        </mxCell>
        <mxCell id="wnDjUDv28tiu1xgnlLdt-35" style="edgeStyle=orthogonalEdgeStyle;rounded=0;orthogonalLoop=1;jettySize=auto;html=1;exitX=1;exitY=0.5;exitDx=0;exitDy=0;entryX=0;entryY=0.5;entryDx=0;entryDy=0;fillColor=#dae8fc;strokeColor=#000000;" edge="1" parent="1" source="wnDjUDv28tiu1xgnlLdt-37" target="wnDjUDv28tiu1xgnlLdt-39">
          <mxGeometry relative="1" as="geometry" />
        </mxCell>
        <mxCell id="wnDjUDv28tiu1xgnlLdt-36" style="edgeStyle=orthogonalEdgeStyle;rounded=0;orthogonalLoop=1;jettySize=auto;html=1;exitX=0.5;exitY=1;exitDx=0;exitDy=0;entryX=0.5;entryY=0;entryDx=0;entryDy=0;fillColor=#fad9d5;strokeColor=#ae4132;" edge="1" parent="1" source="wnDjUDv28tiu1xgnlLdt-37" target="wnDjUDv28tiu1xgnlLdt-44">
          <mxGeometry relative="1" as="geometry" />
        </mxCell>
        <mxCell id="wnDjUDv28tiu1xgnlLdt-37" value="&lt;font style=&quot;font-size: 18px;&quot;&gt;&lt;b&gt;A&lt;/b&gt;&lt;/font&gt;" style="ellipse;whiteSpace=wrap;html=1;aspect=fixed;fillColor=#bac8d3;strokeColor=#23445d;" vertex="1" parent="1">
          <mxGeometry x="995" y="1000" width="40" height="40" as="geometry" />
        </mxCell>
        <mxCell id="wnDjUDv28tiu1xgnlLdt-38" style="edgeStyle=orthogonalEdgeStyle;rounded=0;orthogonalLoop=1;jettySize=auto;html=1;exitX=0.5;exitY=1;exitDx=0;exitDy=0;entryX=0.5;entryY=0;entryDx=0;entryDy=0;fillColor=#fad9d5;strokeColor=#000000;" edge="1" parent="1" source="wnDjUDv28tiu1xgnlLdt-39" target="wnDjUDv28tiu1xgnlLdt-42">
          <mxGeometry relative="1" as="geometry" />
        </mxCell>
        <mxCell id="wnDjUDv28tiu1xgnlLdt-39" value="&lt;font style=&quot;font-size: 18px;&quot;&gt;&lt;b&gt;B&lt;/b&gt;&lt;/font&gt;" style="ellipse;whiteSpace=wrap;html=1;aspect=fixed;fillColor=#bac8d3;strokeColor=#23445d;" vertex="1" parent="1">
          <mxGeometry x="1195" y="1000" width="40" height="40" as="geometry" />
        </mxCell>
        <mxCell id="wnDjUDv28tiu1xgnlLdt-40" style="edgeStyle=orthogonalEdgeStyle;rounded=0;orthogonalLoop=1;jettySize=auto;html=1;exitX=1;exitY=0.5;exitDx=0;exitDy=0;entryX=0;entryY=0.5;entryDx=0;entryDy=0;fillColor=#fad9d5;strokeColor=#000000;" edge="1" parent="1" source="wnDjUDv28tiu1xgnlLdt-44" target="wnDjUDv28tiu1xgnlLdt-42">
          <mxGeometry relative="1" as="geometry" />
        </mxCell>
        <mxCell id="wnDjUDv28tiu1xgnlLdt-41" style="rounded=0;orthogonalLoop=1;jettySize=auto;html=1;exitX=0;exitY=0;exitDx=0;exitDy=0;entryX=1;entryY=1;entryDx=0;entryDy=0;fillColor=#fad9d5;strokeColor=#ae4132;" edge="1" parent="1" source="wnDjUDv28tiu1xgnlLdt-42" target="wnDjUDv28tiu1xgnlLdt-37">
          <mxGeometry relative="1" as="geometry" />
        </mxCell>
        <mxCell id="wnDjUDv28tiu1xgnlLdt-42" value="&lt;font style=&quot;font-size: 18px;&quot;&gt;&lt;b&gt;C&lt;/b&gt;&lt;/font&gt;" style="ellipse;whiteSpace=wrap;html=1;aspect=fixed;fillColor=#bac8d3;strokeColor=#23445d;" vertex="1" parent="1">
          <mxGeometry x="1195" y="1160" width="40" height="40" as="geometry" />
        </mxCell>
        <mxCell id="wnDjUDv28tiu1xgnlLdt-43" style="rounded=0;orthogonalLoop=1;jettySize=auto;html=1;exitX=1;exitY=0;exitDx=0;exitDy=0;entryX=0;entryY=1;entryDx=0;entryDy=0;fillColor=#fad9d5;strokeColor=#ae4132;" edge="1" parent="1" source="wnDjUDv28tiu1xgnlLdt-44" target="wnDjUDv28tiu1xgnlLdt-39">
          <mxGeometry relative="1" as="geometry" />
        </mxCell>
        <mxCell id="wnDjUDv28tiu1xgnlLdt-44" value="&lt;font style=&quot;font-size: 18px;&quot;&gt;&lt;b&gt;D&lt;/b&gt;&lt;/font&gt;" style="ellipse;whiteSpace=wrap;html=1;aspect=fixed;fillColor=#f8cecc;strokeColor=#b85450;" vertex="1" parent="1">
          <mxGeometry x="995" y="1160" width="40" height="40" as="geometry" />
        </mxCell>
        <mxCell id="wnDjUDv28tiu1xgnlLdt-45" value="&lt;b&gt;&lt;font style=&quot;font-size: 15px;&quot;&gt;9&lt;/font&gt;&lt;/b&gt;" style="text;html=1;align=center;verticalAlign=middle;resizable=0;points=[];autosize=1;strokeColor=none;fillColor=none;" vertex="1" parent="1">
          <mxGeometry x="1100" y="1190" width="30" height="30" as="geometry" />
        </mxCell>
        <mxCell id="wnDjUDv28tiu1xgnlLdt-46" value="&lt;b&gt;&lt;font style=&quot;font-size: 15px;&quot;&gt;4&lt;/font&gt;&lt;/b&gt;" style="text;html=1;align=center;verticalAlign=middle;resizable=0;points=[];autosize=1;strokeColor=none;fillColor=none;" vertex="1" parent="1">
          <mxGeometry x="1070" y="1040" width="30" height="30" as="geometry" />
        </mxCell>
        <mxCell id="wnDjUDv28tiu1xgnlLdt-47" value="&lt;b&gt;&lt;font style=&quot;font-size: 15px;&quot;&gt;2&lt;/font&gt;&lt;/b&gt;" style="text;html=1;align=center;verticalAlign=middle;resizable=0;points=[];autosize=1;strokeColor=none;fillColor=none;" vertex="1" parent="1">
          <mxGeometry x="1085" y="1120" width="30" height="30" as="geometry" />
        </mxCell>
        <mxCell id="wnDjUDv28tiu1xgnlLdt-48" value="&lt;b&gt;&lt;font style=&quot;font-size: 15px;&quot;&gt;8&lt;/font&gt;&lt;/b&gt;" style="text;html=1;align=center;verticalAlign=middle;resizable=0;points=[];autosize=1;strokeColor=none;fillColor=none;" vertex="1" parent="1">
          <mxGeometry x="1100" y="990" width="30" height="30" as="geometry" />
        </mxCell>
        <mxCell id="wnDjUDv28tiu1xgnlLdt-49" value="&lt;b&gt;&lt;font style=&quot;font-size: 15px;&quot;&gt;1&lt;/font&gt;&lt;/b&gt;" style="text;html=1;align=center;verticalAlign=middle;resizable=0;points=[];autosize=1;strokeColor=none;fillColor=none;" vertex="1" parent="1">
          <mxGeometry x="1215" y="1090" width="30" height="30" as="geometry" />
        </mxCell>
        <mxCell id="wnDjUDv28tiu1xgnlLdt-50" value="&lt;i&gt;&lt;font style=&quot;font-size: 17px;&quot;&gt;Iteration 4 C -&amp;gt; B via D&lt;/font&gt;&lt;/i&gt;" style="text;html=1;strokeColor=none;fillColor=none;align=left;verticalAlign=middle;whiteSpace=wrap;rounded=0;" vertex="1" parent="1">
          <mxGeometry x="1010" y="960" width="185" height="30" as="geometry" />
        </mxCell>
        <mxCell id="wnDjUDv28tiu1xgnlLdt-51" value="&lt;b&gt;&lt;font style=&quot;font-size: 15px;&quot;&gt;1&lt;/font&gt;&lt;/b&gt;" style="text;html=1;align=center;verticalAlign=middle;resizable=0;points=[];autosize=1;strokeColor=none;fillColor=none;" vertex="1" parent="1">
          <mxGeometry x="985" y="1090" width="30" height="30" as="geometry" />
        </mxCell>
        <mxCell id="wnDjUDv28tiu1xgnlLdt-52" value="Floyd Warshall&amp;nbsp;" style="text;html=1;strokeColor=none;fillColor=none;align=center;verticalAlign=middle;whiteSpace=wrap;rounded=0;" vertex="1" parent="1">
          <mxGeometry x="95" y="130" width="295" height="170" as="geometry" />
        </mxCell>
      </root>
    </mxGraphModel>
  </diagram>
</mxfile>
